<svg xmlns="http://www.w3.org/2000/svg" width="1200" height="675" viewBox="0 0 1200 675">
  <defs><linearGradient id="g" x1="0" y1="0" x2="1" y2="1"><stop stop-color="#050505"/><stop offset=".55" stop-color="#111111"/><stop offset="1" stop-color="#2b210e"/></linearGradient><radialGradient id="glow" cx="70%" cy="20%" r="70%"><stop stop-color="#f0c15a" stop-opacity=".28"/><stop offset="1" stop-color="#000" stop-opacity="0"/></radialGradient></defs>
  <rect width="1200" height="675" fill="url(#g)"/><rect width="1200" height="675" fill="url(#glow)"/>
  <g opacity=".16" stroke="#f0c15a"><path d="M0 112H1200M0 225H1200M0 338H1200M0 451H1200M0 564H1200"/><path d="M120 0V675M300 0V675M480 0V675M660 0V675M840 0V675M1020 0V675"/></g>
  <text x="72" y="120" font-family="Inter,Arial,sans-serif" font-size="26" fill="#c79a3a" letter-spacing="4">SCREENODDS RESEARCH</text>
  <text x="72" y="195" font-family="Inter,Arial,sans-serif" font-weight="700" font-size="64" fill="#fafafa">Prediction Market Arbitrage Workflow</text>
  <text x="76" y="250" font-family="Inter,Arial,sans-serif" font-size="28" fill="#d4d4d8">How ScreenOdds separates signal from noise</text>
  <path d="M92 410 C220 300, 340 180, 470 270 S690 330, 820 230 S1010 310, 1110 180" fill="none" stroke="#f0c15a" stroke-width="9" stroke-linecap="round"/><path d="M92 410 C220 300, 340 180, 470 270 S690 330, 820 230 S1010 310, 1110 180" fill="none" stroke="#fff3c4" stroke-width="2" stroke-linecap="round" opacity=".55"/>
  <rect x="720" y="206.8" width="42" height="213.2" rx="10" fill="#c79a3a" opacity=".92"/><rect x="792" y="253.6" width="42" height="166.4" rx="10" fill="#f0c15a" opacity=".92"/><rect x="864" y="300.4" width="42" height="119.60000000000001" rx="10" fill="#c79a3a" opacity=".92"/><rect x="936" y="235.4" width="42" height="184.6" rx="10" fill="#f0c15a" opacity=".92"/><rect x="1008" y="279.6" width="42" height="140.4" rx="10" fill="#c79a3a" opacity=".92"/>
  <rect x="70" y="455" width="1060" height="1" fill="#c79a3a" opacity=".55"/>
  <text x="82" y="490" font-family="Inter,Arial,sans-serif" font-size="24" fill="#a1a1aa">Reader workflow</text>
  <g transform="translate(90,520)"><rect width="210" height="58" rx="14" fill="#221b11" stroke="#c79a3a"/><text x="105" y="37" text-anchor="middle" font-size="24" fill="#f6e6b6">Execution</text></g><g transform="translate(340,520)"><rect width="210" height="58" rx="14" fill="#171717" stroke="#c79a3a"/><text x="105" y="37" text-anchor="middle" font-size="24" fill="#f6e6b6">Rules</text></g><g transform="translate(590,520)"><rect width="210" height="58" rx="14" fill="#221b11" stroke="#c79a3a"/><text x="105" y="37" text-anchor="middle" font-size="24" fill="#f6e6b6">Fees</text></g><g transform="translate(840,520)"><rect width="210" height="58" rx="14" fill="#171717" stroke="#c79a3a"/><text x="105" y="37" text-anchor="middle" font-size="24" fill="#f6e6b6">Spread</text></g>
  </svg>